GIL03_slow3_ik
nRows=3
nColumns=375

# SIMM Motion File Header:
name GIL03_slow3_ik
datacolumns 375
datarows 3
otherdata 1
range 0.24167000 0.25833000
endheader
time	pelvis_tx	pelvis_ty	pelvis_tz	pelvis_tilt	pelvis_list	pelvis_rotation	hip_flexion_r	hip_adduction_r	hip_rotation_r	knee_angle_r	ankle_angle_r	hip_flexion_l	hip_adduction_l	hip_rotation_l	knee_angle_l	ankle_angle_l	lumbar_extension	lumbar_bending	lumbar_rotation	subtalar_angle_r	mtp_angle_r	subtalar_angle_l	mtp_angle_l	asis_r_px	asis_r_py	asis_r_pz	asis_l_px	asis_l_py	asis_l_pz	midasis_px	midasis_py	midasis_pz	psis_r_px	psis_r_py	psis_r_pz	psis_l_px	psis_l_py	psis_l_pz	hip_r_px	hip_r_py	hip_r_pz	hip_l_px	hip_l_py	hip_l_pz	midhip_px	midhip_py	midhip_pz	epicondLat_r_px	epicondLat_r_py	epicondLat_r_pz	epicondMed_r_px	epicondMed_r_py	epicondMed_r_pz	thighwand_r_px	thighwand_r_py	thighwand_r_pz	upperleg1_r_px	upperleg1_r_py	upperleg1_r_pz	upperleg2_r_px	upperleg2_r_py	upperleg2_r_pz	malleolusLat_r_px	malleolusLat_r_py	malleolusLat_r_pz	malleolusMedv_r_px	malleolusMedv_r_py	malleolusMedv_r_pz	shankwand_r_px	shankwand_r_py	shankwand_r_pz	lowerleg1_r_px	lowerleg1_r_py	lowerleg1_r_pz	knee_r_px	knee_r_py	knee_r_pz	ankle_r_px	ankle_r_py	ankle_r_pz	toe_r_px	toe_r_py	toe_r_pz	epicondLat_l_px	epicondLat_l_py	epicondLat_l_pz	epicondMed_l_px	epicondMed_l_py	epicondMed_l_pz	thighwand_l_px	thighwand_l_py	thighwand_l_pz	upperleg1_l_px	upperleg1_l_py	upperleg1_l_pz	upperleg2_l_px	upperleg2_l_py	upperleg2_l_pz	malleolusLat_l_px	malleolusLat_l_py	malleolusLat_l_pz	malleolusMedv_l_px	malleolusMedv_l_py	malleolusMedv_l_pz	shankwand_l_px	shankwand_l_py	shankwand_l_pz	lowerleg1_l_px	lowerleg1_l_py	lowerleg1_l_pz	knee_l_px	knee_l_py	knee_l_pz	ankle_l_px	ankle_l_py	ankle_l_pz	toe_l_px	toe_l_py	toe_l_pz	subclavicle_r_px	subclavicle_r_py	subclavicle_r_pz	subclavicle_l_px	subclavicle_l_py	subclavicle_l_pz	neck_px	neck_py	neck_pz	sternalnotch_px	sternalnotch_py	sternalnotch_pz	xyphoidprocess_px	xyphoidprocess_py	xyphoidprocess_pz	midhip_tx	midhip_ty	midhip_tz	hip_r_tx	hip_r_ty	hip_r_tz	hip_l_tx	hip_l_ty	hip_l_tz	knee_r_tx	knee_r_ty	knee_r_tz	knee_l_tx	knee_l_ty	knee_l_tz	ankle_r_tx	ankle_r_ty	ankle_r_tz	ankle_l_tx	ankle_l_ty	ankle_l_tz	midasis_tx	midasis_ty	midasis_tz	asis_r_tx	asis_r_ty	asis_r_tz	asis_l_tx	asis_l_ty	asis_l_tz	psis_r_tx	psis_r_ty	psis_r_tz	psis_l_tx	psis_l_ty	psis_l_tz	epicondLat_r_tx	epicondLat_r_ty	epicondLat_r_tz	epicondLat_l_tx	epicondLat_l_ty	epicondLat_l_tz	epicondMed_r_tx	epicondMed_r_ty	epicondMed_r_tz	epicondMed_l_tx	epicondMed_l_ty	epicondMed_l_tz	malleolusLat_r_tx	malleolusLat_r_ty	malleolusLat_r_tz	malleolusLat_l_tx	malleolusLat_l_ty	malleolusLat_l_tz	malleolusMedv_r_tx	malleolusMedv_r_ty	malleolusMedv_r_tz	malleolusMedv_l_tx	malleolusMedv_l_ty	malleolusMedv_l_tz	neck_tx	neck_ty	neck_tz	subclavicle_r_tx	subclavicle_r_ty	subclavicle_r_tz	subclavicle_l_tx	subclavicle_l_ty	subclavicle_l_tz	sternalnotch_tx	sternalnotch_ty	sternalnotch_tz	xyphoidprocess_tx	xyphoidprocess_ty	xyphoidprocess_tz	thighwand_r_tx	thighwand_r_ty	thighwand_r_tz	thighwand_l_tx	thighwand_l_ty	thighwand_l_tz	upperleg1_r_tx	upperleg1_r_ty	upperleg1_r_tz	upperleg1_l_tx	upperleg1_l_ty	upperleg1_l_tz	upperleg2_r_tx	upperleg2_r_ty	upperleg2_r_tz	upperleg2_l_tx	upperleg2_l_ty	upperleg2_l_tz	shankwand_r_tx	shankwand_r_ty	shankwand_r_tz	shankwand_l_tx	shankwand_l_ty	shankwand_l_tz	lowerleg1_r_tx	lowerleg1_r_ty	lowerleg1_r_tz	lowerleg1_l_tx	lowerleg1_l_ty	lowerleg1_l_tz	toe_r_tx	toe_r_ty	toe_r_tz	toe_l_tx	toe_l_ty	toe_l_tz	ground_force_vx	ground_force_vy	ground_force_vz	ground_force_px	ground_force_py	ground_force_pz	ground_force_vx	ground_force_vy	ground_force_vz	ground_force_px	ground_force_py	ground_force_pz	ground_torque_x	ground_torque_y	ground_torque_z	ground_torque_x	ground_torque_y	ground_torque_z	ground_marker_px	ground_marker_py	ground_marker_pz	ground_marker_px	ground_marker_py	ground_marker_pz	ground_marker_px	ground_marker_py	ground_marker_pz	ground_marker_px	ground_marker_py	ground_marker_pz	ground_marker_px	ground_marker_py	ground_marker_pz	ground_marker_px	ground_marker_py	ground_marker_pz	ground_marker_px	ground_marker_py	ground_marker_pz	ground_marker_px	ground_marker_py	ground_marker_pz	ground_marker_px	ground_marker_py	ground_marker_pz	ground_marker_px	ground_marker_py	ground_marker_pz	ground_marker_px	ground_marker_py	ground_marker_pz	ground_marker_px	ground_marker_py	ground_marker_pz	ground_marker_px	ground_marker_py	ground_marker_pz	ground_marker_px	ground_marker_py	ground_marker_pz	ground_marker_px	ground_marker_py	ground_marker_pz	ground_marker_px	ground_marker_py	ground_marker_pz	ground_marker_px	ground_marker_py	ground_marker_pz	ground_marker_px	ground_marker_py	ground_marker_pz	ground_marker_px	ground_marker_py	ground_marker_pz	ground_marker_px	ground_marker_py	ground_marker_pz	ground_marker_px	ground_marker_py	ground_marker_pz	ground_marker_px	ground_marker_py	ground_marker_pz	ground_marker_px	ground_marker_py	ground_marker_pz	ground_marker_px	ground_marker_py	ground_marker_pz	ground_marker_px	ground_marker_py	ground_marker_pz	ground_marker_px	ground_marker_py	ground_marker_pz	ground_marker_px	ground_marker_py	ground_marker_pz	ground_marker_px	ground_marker_py	ground_marker_pz	ground_marker_px	ground_marker_py	ground_marker_pz	ground_marker_px	ground_marker_py	ground_marker_pz	ground_marker_px	ground_marker_py	ground_marker_pz	ground_marker_px	ground_marker_py	ground_marker_pz	ground_marker_px	ground_marker_py	ground_marker_pz	ground_marker_px	ground_marker_py	ground_marker_pz	ground_marker_px	ground_marker_py	ground_marker_pz	ground_marker_px	ground_marker_py	ground_marker_pz	ground_marker_px	ground_marker_py	ground_marker_pz
      0.24167000	      0.75225136	      0.88442036	     -0.20741619	      3.12682055	     -2.96353764	     -1.14269997	     10.68050242	      6.17196195	      2.72351478	    -15.57371159	      3.38851627	      0.09150868	     -9.95994272	    -11.31076118	    -52.73178117	    -10.45365683	     -9.57471169	      5.33188209	     -0.87655503	      0.00000000	      0.00000000	      0.00000000	      0.00000000	      0.79881814	      0.89521368	     -0.11395961	      0.78584305	      0.87800814	     -0.31451383	      0.76326586	      0.88503344	     -0.20719645	      0.64074420	      0.93297502	     -0.18374620	      0.63687800	      0.92899324	     -0.23837136	      0.69796999	      0.83270142	     -0.14012535	      0.70096195	      0.82605143	     -0.27153981	      0.69946597	      0.82937643	     -0.20583258	      0.82163335	      0.45777262	     -0.09977709	      0.79163399	      0.44958434	     -0.20480742	      0.90897148	      0.65109684	     -0.16768515	      0.83156309	      0.68497401	     -0.11199244	      0.83984757	      0.59933582	     -0.11265137	      0.76324780	      0.05243995	     -0.13753239	      0.79422761	      0.06870475	     -0.20214651	      0.76891135	      0.17043297	     -0.05894973	      0.77257228	      0.17920367	     -0.10021365	      0.78607340	      0.46857358	     -0.16000268	      0.77429259	      0.07000240	     -0.17642742	      0.88784709	      0.03347437	     -0.13120203	      0.72907511	      0.45149156	     -0.38083933	      0.73452270	      0.42610295	     -0.27465751	      0.85780793	      0.61356836	     -0.31580242	      0.77561251	      0.65841130	     -0.35400263	      0.77971246	      0.57053419	     -0.35857116	      0.40565839	      0.18295213	     -0.33102088	      0.44361177	      0.16335728	     -0.27816885	      0.45188190	      0.30105795	     -0.38427623	      0.47594481	      0.28645119	     -0.35141897	      0.72680955	      0.44848635	     -0.31855233	      0.42945892	      0.18360372	     -0.29233521	      0.44247340	      0.06573685	     -0.35551240	      0.73595854	      1.27460437	     -0.13953547	      0.74392991	      1.27616523	     -0.24844843	      0.63379272	      1.32051277	     -0.19675074	      0.72434570	      1.28317614	     -0.20025344	      0.81448180	      1.13313017	     -0.19455709	      0.70542900	      0.83470500	     -0.20373400	      0.70894700	      0.81944000	     -0.14198700	      0.70025300	      0.81105500	     -0.25883700	      0.79581000	      0.45727600	     -0.15958100	      0.72277400	      0.44144100	     -0.30086500	      0.78016600	      0.06263100	     -0.17894800	      0.42115900	      0.17942900	     -0.29822300	      0.76250500	      0.89661200	     -0.20456800	      0.76149300	      0.90244600	     -0.10445400	      0.76351700	      0.89077800	     -0.30468200	      0.60421000	      0.92319100	     -0.17856900	      0.60300100	      0.91999400	     -0.23274800	      0.80811900	      0.45762400	     -0.10597700	      0.72574900	      0.44776800	     -0.35491400	      0.78039800	      0.45131200	     -0.20193800	      0.72865100	      0.42216100	     -0.25420100	      0.77368600	      0.06102700	     -0.14103100	      0.41952500	      0.18092200	     -0.33666000	      0.79994600	      0.07735100	     -0.20717100	      0.44287100	      0.17456500	     -0.27468600	      0.63861500	      1.33493400	     -0.19571500	      0.73758400	      1.26283400	     -0.14166900	      0.74077200	      1.26304100	     -0.24802700	      0.72417300	      1.27383100	     -0.20045600	      0.78003200	      1.10741000	     -0.19805900	      0.89197400	      0.65870600	     -0.16074900	      0.85420200	      0.61057700	     -0.28077600	      0.81063400	      0.68568000	     -0.10390300	      0.77790100	      0.65320600	     -0.33086900	      0.82159200	      0.60103500	     -0.10637100	      0.78332200	      0.56586900	     -0.33318300	      0.77947800	      0.17649400	     -0.06464600	      0.47904200	      0.29210500	     -0.39488600	      0.78124400	      0.18558800	     -0.10568700	      0.49442000	      0.28321500	     -0.35532700	      0.89513300	      0.03992000	     -0.14518500	      0.46000600	      0.06212100	     -0.30987500	    -36.59107986	    401.23521930	    -16.61716339	      0.80237256	      0.00000000	     -0.16232637	      0.00000000	      0.00000000	      0.00000000	      1.11125049	      0.00000000	     -0.24210638	      0.00000000	     -0.78025409	      0.00000000	      0.00000000	      0.00000000	      0.00000000	      0.70542866	      0.83470547	     -0.20373380	      0.70894670	      0.81943977	     -0.14198746	      0.70025307	      0.81105524	     -0.25883669	      0.79581016	      0.45727593	     -0.15958062	      0.72277415	      0.44144064	     -0.30086461	      0.78016579	      0.06263082	     -0.17894788	      0.42115906	      0.17942904	     -0.29822338	      0.76250494	      0.89661205	     -0.20456800	      0.76149267	      0.90244603	     -0.10445374	      0.76351720	      0.89077806	     -0.30468225	      0.60420984	      0.92319089	     -0.17856936	      0.60300142	      0.91999382	     -0.23274760	      0.80811888	      0.45762417	     -0.10597675	      0.72574884	      0.44776773	     -0.35491431	      0.78039801	      0.45131153	     -0.20193845	      0.72865146	      0.42216107	     -0.25420052	      0.77368641	      0.06102690	     -0.14103092	      0.41952544	      0.18092211	     -0.33665973	      0.79994625	      0.07735134	     -0.20717131	      0.44287124	      0.17456549	     -0.27468628	      0.63861507	      1.33493352	     -0.19571476	      0.73758370	      1.26283395	     -0.14166889	      0.74077237	      1.26304090	     -0.24802746	      0.72417277	      1.27383125	     -0.20045598	      0.78003150	      1.10740972	     -0.19805881	      0.89197385	      0.65870583	     -0.16074935	      0.85420167	      0.61057651	     -0.28077632	      0.81063420	      0.68567967	     -0.10390338	      0.77790147	      0.65320641	     -0.33086932	      0.82159168	      0.60103530	     -0.10637149	      0.78332245	      0.56586868	     -0.33318344	      0.77947789	      0.17649445	     -0.06464595	      0.47904208	      0.29210469	     -0.39488554	      0.78124392	      0.18558837	     -0.10568654	      0.49441981	      0.28321502	     -0.35532695	      0.89513296	      0.03991956	     -0.14518537	      0.46000633	      0.06212069	     -0.30987468
      0.25000000	      0.75781860	      0.88507363	     -0.20602557	      3.20937378	     -2.99027960	     -1.15774799	     10.13208250	      6.28269300	      2.57244017	    -15.48947067	      3.74889679	      0.97957050	    -10.23740684	    -11.31007393	    -54.35461610	    -10.25591604	     -9.74837605	      5.29616613	     -0.58178702	      0.00000000	      0.00000000	      0.00000000	      0.00000000	      0.80434271	      0.89597685	     -0.11256049	      0.79145042	      0.87866195	     -0.31311064	      0.76883213	      0.88570284	     -0.20580293	      0.64623412	      0.93347673	     -0.18240955	      0.64238946	      0.92946467	     -0.23703402	      0.70359313	      0.83330617	     -0.13872697	      0.70663260	      0.82660123	     -0.27013755	      0.70511286	      0.82995370	     -0.20443226	      0.82405296	      0.45728253	     -0.09887894	      0.79429054	      0.44957827	     -0.20401324	      0.91317312	      0.65003429	     -0.16609547	      0.83588545	      0.68442150	     -0.11054789	      0.84346748	      0.59871976	     -0.11137825	      0.76303648	      0.05249427	     -0.13775403	      0.79431586	      0.06869959	     -0.20223865	      0.76926504	      0.17026309	     -0.05887836	      0.77310680	      0.17910485	     -0.10011066	      0.78873827	      0.46851524	     -0.15918043	      0.77431429	      0.07007212	     -0.17657516	      0.88765124	      0.03338518	     -0.13093457	      0.74102530	      0.45301648	     -0.38096808	      0.74699328	      0.42729780	     -0.27489372	      0.86703530	      0.61699868	     -0.31537735	      0.78405652	      0.66058897	     -0.35333312	      0.78964778	      0.57281346	     -0.35825910	      0.41502189	      0.18724923	     -0.32965398	      0.45297115	      0.16731416	     -0.27692638	      0.46229046	      0.30479331	     -0.38323383	      0.48632498	      0.28997020	     -0.35045279	      0.73902586	      0.44936518	     -0.31876316	      0.43897916	      0.18769329	     -0.29106224	      0.45088321	      0.06973985	     -0.35429684	      0.74223330	      1.27507562	     -0.13865509	      0.74969082	      1.27657886	     -0.24760525	      0.63986005	      1.32109833	     -0.19540588	      0.73034465	      1.28363709	     -0.19932111	      0.82030289	      1.13347114	     -0.19398629	      0.71107300	      0.83511200	     -0.20208200	      0.71467100	      0.81994300	     -0.14038000	      0.70597300	      0.81145700	     -0.25722200	      0.79853700	      0.45725900	     -0.15847900	      0.73479800	      0.44216600	     -0.30060600	      0.78022400	      0.06269500	     -0.17888200	      0.43063600	      0.18390500	     -0.29776700	      0.76810400	      0.89714800	     -0.20302700	      0.76709700	      0.90305900	     -0.10287300	      0.76911200	      0.89123700	     -0.30318100	      0.60976100	      0.92354300	     -0.17710000	      0.60854800	      0.92023100	     -0.23127100	      0.81071300	      0.45739800	     -0.10484400	      0.73757100	      0.44873000	     -0.35463800	      0.78281200	      0.45223200	     -0.20205300	      0.73995100	      0.42281700	     -0.25407000	      0.77363200	      0.06104200	     -0.14098600	      0.42912300	      0.18526400	     -0.33621300	      0.79987600	      0.07737000	     -0.20707500	      0.45246400	      0.17893000	     -0.27432900	      0.64469400	      1.33538700	     -0.19446100	      0.74371500	      1.26316000	     -0.14068900	      0.74656800	      1.26345500	     -0.24709800	      0.73014700	      1.27422500	     -0.19943900	      0.78581600	      1.10773800	     -0.19736700	      0.89640400	      0.65801300	     -0.15899800	      0.86315600	      0.61325200	     -0.28017000	      0.81522400	      0.68555900	     -0.10227800	      0.78626000	      0.65468300	     -0.33004600	      0.82529100	      0.60085000	     -0.10530900	      0.79272400	      0.56745700	     -0.33266900	      0.78001400	      0.17627500	     -0.06430600	      0.49004900	      0.29547900	     -0.39460900	      0.78181300	      0.18550900	     -0.10532700	      0.50532700	      0.28659300	     -0.35521400	      0.89511000	      0.03986600	     -0.14507200	      0.46864600	      0.06599200	     -0.30994000	    -35.71981757	    405.16627552	    -16.41922478	      0.80355652	      0.00000000	     -0.16185715	      0.00000000	      0.00000000	      0.00000000	      1.11296021	      0.00000000	     -0.24180090	      0.00000000	     -0.76912372	      0.00000000	      0.00000000	      0.00000000	      0.00000000	      0.71107340	      0.83511245	     -0.20208183	      0.71467054	      0.81994295	     -0.14038028	      0.70597309	      0.81145656	     -0.25722191	      0.79853743	      0.45725903	     -0.15847875	      0.73479819	      0.44216576	     -0.30060554	      0.78022414	      0.06269515	     -0.17888170	      0.43063611	      0.18390460	     -0.29776728	      0.76810443	      0.89714772	     -0.20302698	      0.76709700	      0.90305889	     -0.10287280	      0.76911181	      0.89123654	     -0.30318117	      0.60976052	      0.92354310	     -0.17710000	      0.60854810	      0.92023146	     -0.23127078	      0.81071311	      0.45739803	     -0.10484355	      0.73757142	      0.44872981	     -0.35463765	      0.78281218	      0.45223153	     -0.20205277	      0.73995078	      0.42281738	     -0.25406992	      0.77363211	      0.06104153	     -0.14098631	      0.42912295	      0.18526414	     -0.33621350	      0.79987603	      0.07737040	     -0.20707549	      0.45246354	      0.17893019	     -0.27432895	      0.64469355	      1.33538663	     -0.19446070	      0.74371505	      1.26315999	     -0.14068940	      0.74656755	      1.26345515	     -0.24709827	      0.73014653	      1.27422488	     -0.19943924	      0.78581578	      1.10773849	     -0.19736749	      0.89640355	      0.65801281	     -0.15899763	      0.86315584	      0.61325234	     -0.28017026	      0.81522375	      0.68555915	     -0.10227788	      0.78625983	      0.65468282	     -0.33004555	      0.82529116	      0.60084975	     -0.10530940	      0.79272407	      0.56745696	     -0.33266941	      0.78001398	      0.17627475	     -0.06430604	      0.49004927	      0.29547933	     -0.39460897	      0.78181338	      0.18550941	     -0.10532685	      0.50532699	      0.28659290	     -0.35521427	      0.89511043	      0.03986631	     -0.14507172	      0.46864650	      0.06599176	     -0.30994040
      0.25833000	      0.76332376	      0.88568085	     -0.20455976	      3.29704554	     -3.00934032	     -1.15932407	      9.57090399	      6.38570085	      2.49141067	    -15.37887167	      4.09212368	      1.84825217	    -10.46258645	    -11.13207277	    -55.86862936	     -9.72162658	     -9.92141757	      5.22505058	     -0.26230078	      0.00000000	      0.00000000	      0.00000000	      0.00000000	      0.80982676	      0.89668621	     -0.11109616	      0.79697035	      0.87928529	     -0.31164116	      0.77433630	      0.88632700	     -0.20433683	      0.65166418	      0.93392079	     -0.18096489	      0.64782821	      0.92988479	     -0.23558820	      0.70917450	      0.83385264	     -0.13724655	      0.71223036	      0.82710893	     -0.26865476	      0.71070243	      0.83048079	     -0.20295066	      0.82644673	      0.45676377	     -0.09796015	      0.79678126	      0.44951339	     -0.20315411	      0.91726665	      0.64890005	     -0.16466170	      0.84018284	      0.68381907	     -0.10916263	      0.84705414	      0.59805909	     -0.11015086	      0.76290462	      0.05252130	     -0.13776313	      0.79439041	      0.06865888	     -0.20216422	      0.76975732	      0.17008599	     -0.05863507	      0.77372172	      0.17898759	     -0.09984288	      0.79129378	      0.46841285	     -0.15829108	      0.77435675	      0.07010640	     -0.17652990	      0.88754135	      0.03328229	     -0.13062250	      0.75294708	      0.45452772	     -0.38071376	      0.75912372	      0.42853762	     -0.27471753	      0.87612835	      0.62031604	     -0.31429514	      0.79252363	      0.66267741	     -0.35226878	      0.79955908	      0.57502284	     -0.35748866	      0.42455509	      0.19123154	     -0.32882463	      0.46236151	      0.17101307	     -0.27610232	      0.47288452	      0.30824774	     -0.38261314	      0.49680725	      0.29324439	     -0.34983233	      0.75103182	      0.45028791	     -0.31859245	      0.44855010	      0.19150358	     -0.29025475	      0.46034043	      0.07367450	     -0.35374198	      0.74846363	      1.27553051	     -0.13787015	      0.75532631	      1.27692996	     -0.24686077	      0.64583985	      1.32163497	     -0.19409969	      0.73625385	      1.28405469	     -0.19847761	      0.82604859	      1.13377851	     -0.19350445	      0.71657700	      0.83540900	     -0.20044800	      0.72031900	      0.82043200	     -0.13882400	      0.71161700	      0.81187900	     -0.25566100	      0.80114000	      0.45722200	     -0.15743400	      0.74657700	      0.44302300	     -0.30028100	      0.78028900	      0.06276300	     -0.17882000	      0.44028600	      0.18802800	     -0.29728500	      0.77362700	      0.89768900	     -0.20151500	      0.77262500	      0.90364700	     -0.10132000	      0.77462800	      0.89173100	     -0.30171000	      0.61523400	      0.92389400	     -0.17569800	      0.61404300	      0.92046200	     -0.22993800	      0.81324100	      0.45716500	     -0.10378200	      0.74932500	      0.44981600	     -0.35428600	      0.78512900	      0.45303800	     -0.20233500	      0.75296400	      0.42300000	     -0.25353600	      0.77358000	      0.06106400	     -0.14094700	      0.43895300	      0.18917600	     -0.33574500	      0.79986600	      0.07751300	     -0.20702500	      0.46236600	      0.18295600	     -0.27397300	      0.65071700	      1.33588200	     -0.19326600	      0.74973800	      1.26349200	     -0.13977000	      0.75223900	      1.26388400	     -0.24620500	      0.73602100	      1.27462300	     -0.19846100	      0.79140600	      1.10805900	     -0.19674300	      0.90068200	      0.65730900	     -0.15745900	      0.87187700	      0.61599700	     -0.27907700	      0.81965000	      0.68536000	     -0.10091700	      0.79374500	      0.65609300	     -0.32885200	      0.82884400	      0.60055600	     -0.10447700	      0.80224300	      0.56909800	     -0.33174800	      0.78050500	      0.17608700	     -0.06400600	      0.50126600	      0.29845800	     -0.39442400	      0.78235400	      0.18547400	     -0.10504000	      0.51633100	      0.28973500	     -0.35516300	      0.89509000	      0.03982200	     -0.14497400	      0.47834200	      0.06978300	     -0.30998200	    -34.65477966	    408.97563789	    -15.99807693	      0.80501349	      0.00000000	     -0.16132918	      0.00000000	      0.00000000	      0.00000000	      1.11480188	      0.00000000	     -0.24142810	      0.00000000	     -0.75815601	      0.00000000	      0.00000000	      0.00000000	      0.00000000	      0.71657658	      0.83540940	     -0.20044771	      0.72031933	      0.82043207	     -0.13882442	      0.71161675	      0.81187886	     -0.25566077	      0.80114001	      0.45722187	     -0.15743433	      0.74657726	      0.44302273	     -0.30028057	      0.78028899	      0.06276271	     -0.17881985	      0.44028568	      0.18802787	     -0.29728523	      0.77362657	      0.89768898	     -0.20151484	      0.77262515	      0.90364724	     -0.10131968	      0.77462792	      0.89173067	     -0.30171001	      0.61523414	      0.92389441	     -0.17569757	      0.61404264	      0.92046183	     -0.22993790	      0.81324059	      0.45716545	     -0.10378200	      0.74932468	      0.44981605	     -0.35428569	      0.78512943	      0.45303780	     -0.20233515	      0.75296426	      0.42300037	     -0.25353640	      0.77357966	      0.06106411	     -0.14094706	      0.43895340	      0.18917638	     -0.33574504	      0.79986632	      0.07751337	     -0.20702524	      0.46236575	      0.18295564	     -0.27397326	      0.65071708	      1.33588183	     -0.19326553	      0.74973750	      1.26349211	     -0.13976961	      0.75223947	      1.26388443	     -0.24620461	      0.73602057	      1.27462339	     -0.19846117	      0.79140610	      1.10805881	     -0.19674286	      0.90068185	      0.65730852	     -0.15745853	      0.87187719	      0.61599708	     -0.27907741	      0.81965005	      0.68536049	     -0.10091711	      0.79374474	      0.65609336	     -0.32885200	      0.82884443	      0.60055584	     -0.10447744	      0.80224311	      0.56909788	     -0.33174810	      0.78050470	      0.17608657	     -0.06400605	      0.50126559	      0.29845804	     -0.39442432	      0.78235394	      0.18547440	     -0.10503980	      0.51633132	      0.28973463	     -0.35516265	      0.89509046	      0.03982170	     -0.14497443	      0.47834200	      0.06978299	     -0.30998245
